<?xml version="1.0" encoding="utf-8"?>
<!-- Generator: Adobe Illustrator 26.1.0, SVG Export Plug-In . SVG Version: 6.00 Build 0)  -->
<svg version="1.1" id="Lag_1" xmlns="http://www.w3.org/2000/svg" xmlns:xlink="http://www.w3.org/1999/xlink" x="0px" y="0px"
	 viewBox="0 0 316 309" style="enable-background:new 0 0 316 309;" xml:space="preserve">
<style type="text/css">
	.st0{fill-rule:evenodd;clip-rule:evenodd;fill:#FFFFFF;}
</style>
<g>
	<path class="st0" d="M130.07,66.04c4.67,0,8.1,1.93,10.3,5.89c1.02,1.85,1.58,3.86,1.58,6.06c0,2.01-0.51,3.91-1.45,5.65
		c-2.31,4.13-5.77,6.19-10.43,6.19c-4.53,0-7.99-1.88-10.25-5.65c-1.18-1.93-1.72-3.99-1.72-6.19c0-2.2,0.48-4.23,1.58-6.06
		C121.94,67.97,125.45,66.04,130.07,66.04L130.07,66.04z M77.66,66.04c4.77,0,8.23,1.93,10.43,5.89c1.05,1.85,1.58,3.86,1.58,6.06
		c0,2.12-0.54,4.1-1.58,5.92c-2.2,3.94-5.66,5.92-10.43,5.92c-4.64,0-8.1-1.98-10.25-5.92c-1.07-1.85-1.61-3.83-1.61-5.92
		c0-2.3,0.54-4.37,1.61-6.19C69.74,67.92,73.15,66.04,77.66,66.04L77.66,66.04z M103.86,17.23c-23.25,0-43.16,8.25-59.65,24.78
		s-24.78,36.39-24.78,59.56c0,23.23,8.26,43.08,24.78,59.51c16.49,16.42,36.42,24.7,59.65,24.7c23.2,0,43.07-8.28,59.62-24.7
		c16.55-16.45,24.81-36.3,24.81-59.51c0-23.18-8.26-43.03-24.81-59.56S127.06,17.23,103.86,17.23L103.86,17.23z M103.86,5.09
		c26.61,0,49.38,9.43,68.26,28.29s28.32,41.58,28.32,68.19c0,26.55-9.44,49.27-28.32,68.14C153.24,188.57,130.49,198,103.86,198
		c-26.61,0-49.38-9.43-68.21-28.29c-18.88-18.86-28.32-41.58-28.32-68.14c0-26.58,9.44-49.33,28.32-68.19
		C54.48,14.52,77.25,5.09,103.86,5.09L103.86,5.09z M158.41,93.8h13.44c0,18.94-6.71,35.07-20.09,48.47
		c-13.41,13.4-29.53,20.07-48.41,20.07c-18.88,0-34.97-6.7-48.39-20.07c-13.41-13.4-20.09-29.5-20.09-48.47h13.44
		c0,15.27,5.34,28.21,16.15,38.85c10.76,10.69,23.68,16,38.89,16s28.19-5.31,38.94-16C153,122.01,158.41,109.07,158.41,93.8
		L158.41,93.8z"/>
</g>
</svg>
